<svg width="38" height="24" viewBox="0 0 38 24" fill="none" xmlns="http://www.w3.org/2000/svg">
<path d="M36.944 8.57571C35.6824 7.84222 34.0101 7.7542 32.6018 8.16496C32.4258 6.6393 31.4282 5.31902 30.2546 4.38016L29.7852 3.99874L29.3744 4.46817C28.5823 5.3777 28.3476 6.90336 28.4649 8.07694C28.5529 8.92779 28.817 9.80797 29.3451 10.5121C28.9344 10.7468 28.4943 11.0696 28.0835 11.2163C27.262 11.5097 26.3525 11.8031 25.4723 11.8031H23.5065V7.66619H19.6924V0.331299H15.2915V3.85204H7.95658V7.66619H4.14244V11.7737H0.856412L0.797733 12.2138C0.651035 14.0915 0.885752 15.9106 1.67792 17.6416L2.00065 18.2871L2.02999 18.3458C4.34782 22.2773 8.39667 23.9203 12.8269 23.9203C21.3941 23.9203 28.4649 20.0768 31.6923 12.0084C33.8634 12.1258 36.0932 11.4803 37.1494 9.39722L37.4135 8.86911L36.944 8.57571ZM8.54337 4.73223H11.4773V7.95958H8.54337V4.73223ZM12.3869 17.7003C12.3869 18.1991 11.9761 18.6098 11.4773 18.6098C10.9786 18.6098 10.5678 18.1991 10.5678 17.7003C10.5678 17.2015 10.9786 16.7908 11.4773 16.7908C11.9761 16.8201 12.3869 17.2015 12.3869 17.7003ZM8.54337 8.54637H11.4773V11.7737H8.54337V8.54637ZM4.72923 8.54637H7.95658V11.7737H4.72923V8.54637ZM12.8563 23.2748C8.22064 23.2455 5.72678 21.6905 3.67301 19.6367C4.28914 19.6661 4.87593 19.6954 5.40404 19.6954C5.87347 19.6954 6.34291 19.6954 6.783 19.6661C7.92724 19.6074 8.92479 19.4607 9.74629 19.226C10.4211 20.781 11.6534 22.2186 13.8538 23.2748H12.8563ZM15.2915 11.7737H12.0641V8.54637H15.2915V11.7737ZM15.2915 7.95958H12.0641V4.73223H15.2915V7.95958ZM19.1056 11.7737H15.8783V8.54637H19.1056V11.7737ZM19.1056 7.95958H15.8783V4.73223H19.1056V7.95958ZM19.1056 4.14544H15.8783V0.91809H19.1056V4.14544ZM22.9197 11.7737H19.6924V8.54637H22.9197V11.7737ZM11.712 17.1135C11.6534 17.0842 11.5653 17.0548 11.4773 17.0548C11.1253 17.0548 10.8319 17.3482 10.8319 17.7003C10.8319 18.0524 11.1253 18.3458 11.4773 18.3458C11.8294 18.3458 12.1228 18.0524 12.1228 17.7003C12.1228 17.6123 12.0935 17.5243 12.0641 17.4656C12.0054 17.5536 11.9468 17.6123 11.8294 17.6123C11.6827 17.6123 11.5653 17.4949 11.5653 17.3482C11.5947 17.2309 11.6534 17.1429 11.712 17.1135Z" fill="#01B4E6"/>
</svg>
