<svg width="37" height="37" viewBox="0 0 37 37" fill="none" xmlns="http://www.w3.org/2000/svg">
<g clip-path="url(#clip0)">
<path d="M18.3666 0C8.24408 0 0.038147 8.2059 0.038147 18.3284C0.038147 28.451 8.24411 36.6569 18.3666 36.6569C28.4892 36.6569 36.695 28.451 36.695 18.3284C36.695 8.2059 28.4892 0 18.3666 0ZM3.97647 18.5195L18.1755 32.7186C10.3786 32.6169 4.07806 26.3164 3.97647 18.5195ZM21.5879 32.3588L4.33626 15.1072C5.79912 8.70934 11.5253 3.93591 18.3666 3.93591C23.1488 3.93591 27.3855 6.26891 30.0027 9.85818L28.0099 11.6165C25.8869 8.57195 22.3597 6.57944 18.3666 6.57944C13.2826 6.57944 8.95315 9.80875 7.31671 14.3279L22.3671 29.3784C26.0221 28.0548 28.8332 24.9694 29.7746 21.1482H23.5362V18.3285H30.1156V18.3284H32.7591V18.3284C32.7591 25.1698 27.9857 30.8959 21.5879 32.3588Z" fill="#A86EE6"/>
</g>
<defs>
<clipPath id="clip0">
<rect width="36.6569" height="36.6569" fill="white" transform="translate(0.038147)"/>
</clipPath>
</defs>
</svg>
