<svg width="36" height="36" viewBox="0 0 36 36" fill="none" xmlns="http://www.w3.org/2000/svg">
<path fill-rule="evenodd" clip-rule="evenodd" d="M18.0168 2.0177C8.89484 2.0177 1.49786 9.41304 1.49786 18.5366C1.49786 25.8354 6.23104 32.0272 12.7945 34.2117C13.6198 34.3649 13.9229 33.8534 13.9229 33.4171C13.9229 33.0231 13.9076 31.7219 13.9005 30.3416C9.30488 31.3408 8.33516 28.3925 8.33516 28.3925C7.58373 26.4832 6.50103 25.9755 6.50103 25.9755C5.00199 24.9502 6.614 24.9716 6.614 24.9716C8.27252 25.0878 9.14623 26.6739 9.14623 26.6739C10.6196 29.1987 13.0106 28.4689 13.9533 28.0471C14.1015 26.9794 14.5296 26.2504 15.002 25.8379C11.333 25.4207 7.47568 24.004 7.47568 17.6744C7.47568 15.8709 8.12125 14.3973 9.17796 13.2402C9.00617 12.8244 8.44075 11.1443 9.33771 8.86896C9.33771 8.86896 10.7246 8.42499 13.8813 10.5622C15.1993 10.1959 16.6127 10.0118 18.0168 10.0055C19.4201 10.0118 20.8343 10.1954 22.1548 10.5617C25.3077 8.42444 26.6929 8.86841 26.6929 8.86841C27.592 11.1435 27.0266 12.8239 26.8551 13.2397C27.9143 14.3968 28.5552 15.8704 28.5552 17.6739C28.5552 24.0185 24.6908 25.4153 21.0124 25.8245C21.6052 26.3371 22.1331 27.3427 22.1331 28.8836C22.1331 31.0938 22.114 32.8727 22.114 33.4168C22.114 33.8564 22.4116 34.3715 23.2487 34.2092C29.8083 32.0225 34.536 25.8327 34.536 18.5366C34.5358 9.41359 27.1396 2.01797 18.0168 2.01797V2.0177Z" fill="#AB82E6"/>
<path d="M7.75442 25.7351C7.71804 25.8171 7.58893 25.8418 7.4713 25.7857C7.35094 25.7321 7.28392 25.6202 7.32277 25.5378C7.35833 25.453 7.48772 25.4298 7.60726 25.4864C7.72762 25.5403 7.796 25.6533 7.75415 25.7353L7.75442 25.7351ZM8.42352 26.4816C8.34501 26.5546 8.19101 26.5207 8.08651 26.405C7.97819 26.2901 7.95794 26.1361 8.03809 26.062C8.11961 25.9892 8.26897 26.0237 8.37729 26.1386C8.48507 26.2551 8.5064 26.4077 8.42379 26.4819L8.42352 26.4816ZM9.07511 27.4327C8.9739 27.5033 8.80813 27.4374 8.70582 27.2905C8.60461 27.1433 8.60461 26.9669 8.70856 26.8966C8.81059 26.826 8.9739 26.8897 9.07784 27.0352C9.17851 27.1843 9.17851 27.3608 9.07511 27.4324V27.4327ZM9.96715 28.3521C9.87687 28.4519 9.68375 28.4251 9.5426 28.2892C9.39844 28.156 9.35823 27.9664 9.44877 27.8668C9.54069 27.7667 9.73463 27.7946 9.8766 27.9297C10.0208 28.0627 10.0643 28.2525 9.96769 28.3518L9.96715 28.3521ZM11.1981 28.8858C11.1579 29.0152 10.9724 29.074 10.785 29.0187C10.5982 28.9621 10.4759 28.8108 10.5142 28.6801C10.5525 28.5496 10.7394 28.4886 10.9278 28.5474C11.1147 28.6038 11.2369 28.7542 11.1981 28.8858ZM12.5502 28.9845C12.5549 29.1208 12.3962 29.2335 12.2001 29.2362C12.0023 29.2409 11.8423 29.1303 11.8404 28.9963C11.8404 28.8587 11.9958 28.7474 12.1933 28.7435C12.3894 28.74 12.5505 28.8494 12.5505 28.9843L12.5502 28.9845ZM13.808 28.7706C13.8315 28.9033 13.695 29.0398 13.5 29.0762C13.3085 29.1117 13.1307 29.0291 13.1061 28.8975C13.0826 28.7613 13.2215 28.6248 13.413 28.5895C13.6083 28.5559 13.7834 28.636 13.808 28.7709V28.7706Z" fill="#AB82E6"/>
</svg>
