<svg width="16" height="15" viewBox="0 0 16 15" fill="none" xmlns="http://www.w3.org/2000/svg">
<path d="M13.1212 12.5858H10.9341V9.15877C10.9341 8.34154 10.9175 7.28985 9.79445 7.28985C8.65415 7.28985 8.47999 8.17908 8.47999 9.09846V12.5858H6.29291V5.53846H8.39384V6.49908H8.42214C8.71568 5.94523 9.42953 5.36062 10.496 5.36062C12.712 5.36062 13.1218 6.81908 13.1218 8.71754V12.5858H13.1212ZM3.82276 4.57415C3.11876 4.57415 2.55322 4.00431 2.55322 3.30338C2.55322 2.60308 3.11938 2.03385 3.82276 2.03385C4.5243 2.03385 5.09291 2.60308 5.09291 3.30338C5.09291 4.00431 4.52368 4.57415 3.82276 4.57415ZM4.91938 12.5858H2.72614V5.53846H4.91938V12.5858ZM14.2154 0H1.6283C1.02584 0 0.538452 0.476308 0.538452 1.064V13.7052C0.538452 14.2935 1.02584 14.7692 1.6283 14.7692H14.2135C14.8154 14.7692 15.3077 14.2935 15.3077 13.7052V1.064C15.3077 0.476308 14.8154 0 14.2135 0H14.2154Z" fill="#0097E6"/>
</svg>
