<svg width="17" height="36" viewBox="0 0 17 36" fill="none" xmlns="http://www.w3.org/2000/svg">
<path fill-rule="evenodd" clip-rule="evenodd" d="M15.2386 11.5258C15.6994 12.8586 16.0312 14.2193 16.1403 15.6296C16.2758 17.3792 16.2138 19.1165 15.8449 20.8374C15.8349 20.8848 15.8136 20.9293 15.7978 20.9752C15.6821 20.9755 15.5642 20.9611 15.4511 20.9786C14.4954 21.1288 13.5407 21.2844 12.5859 21.4391C11.599 21.599 10.6107 21.7525 9.62549 21.9233C9.27642 21.9836 8.8444 21.9116 8.70345 22.3944C8.69943 22.4076 8.65925 22.4099 8.63599 22.4174L8.68365 19.5321C8.66728 17.2116 8.65121 14.891 8.63513 12.5704L9.095 12.4915C9.8471 12.3683 10.5992 12.2434 11.3519 12.1237C12.2501 11.9811 13.1491 11.8424 14.0479 11.7032C14.4443 11.6415 14.8413 11.5849 15.2386 11.5258Z" fill="#439934"/>
<path fill-rule="evenodd" clip-rule="evenodd" d="M7.68637 30.8282C7.20124 30.4111 6.69918 30.0124 6.23414 29.5737C3.73185 27.2135 1.90156 24.4357 1.0002 21.0866C0.751891 20.1648 0.586259 19.2281 0.533153 18.2757C0.495835 17.6091 0.441867 16.9365 0.488945 16.2734C0.61439 14.5097 0.869299 12.763 1.38658 11.0642L1.415 11.0246C1.46523 11.0915 1.53757 11.1506 1.56312 11.2261C2.06806 12.713 2.56926 14.2012 3.06788 15.6901C4.63465 20.3692 6.19941 25.0494 7.76876 29.7273C7.79947 29.8186 7.87899 29.8935 7.93611 29.9759L7.68637 30.8282Z" fill="#45A538"/>
<path fill-rule="evenodd" clip-rule="evenodd" d="M15.2386 11.5258C14.8413 11.5849 14.444 11.6415 14.0476 11.7026C13.1488 11.8418 12.2497 11.9805 11.3515 12.1231C10.5989 12.2428 9.84678 12.3677 9.09468 12.4909L8.63481 12.5698L8.63137 12.2698C8.61616 12.0232 8.59003 11.7769 8.58716 11.5304C8.56736 9.95786 8.55501 8.38535 8.53549 6.81284C8.52344 5.82851 8.50535 4.84448 8.48526 3.86044C8.47291 3.249 8.45971 2.63728 8.43215 2.02671C8.41723 1.6986 8.36441 1.37221 8.34288 1.0441C8.33082 0.855505 8.34747 0.665472 8.3512 0.476013C8.58573 0.930427 8.81509 1.38829 9.05622 1.83926C9.43714 2.55231 10.044 3.07763 10.5903 3.65088C12.7498 5.91635 14.283 8.55041 15.2386 11.5258Z" fill="#46A037"/>
<path fill-rule="evenodd" clip-rule="evenodd" d="M8.63568 22.4171C8.65893 22.4096 8.69941 22.4073 8.70314 22.3941C8.84409 21.9113 9.27611 21.9833 9.62517 21.923C10.6104 21.7525 11.5987 21.5987 12.5856 21.4388C13.5404 21.284 14.4951 21.1285 15.4507 20.9783C15.5638 20.9605 15.6818 20.9752 15.7975 20.9749C15.619 21.6121 15.4783 22.2632 15.2518 22.883C14.9946 23.586 14.6834 24.272 14.353 24.9446C13.8593 25.9502 13.2441 26.888 12.5293 27.7472C11.9785 28.4097 11.3645 29.022 10.749 29.6268C10.4088 29.9613 10.0078 30.2337 9.63464 30.5342L9.53791 30.4682L9.18942 30.1702L8.82887 29.38C8.58056 28.4548 8.45024 27.5129 8.42871 26.5559L8.43531 26.3948L8.4844 25.6984C8.50076 25.4607 8.52258 25.2233 8.53263 24.9851C8.56966 24.1291 8.60181 23.2731 8.63568 22.4171Z" fill="#409433"/>
<path fill-rule="evenodd" clip-rule="evenodd" d="M8.6357 22.4171C8.60183 23.2731 8.56968 24.1291 8.53322 24.9854C8.52318 25.2236 8.50136 25.461 8.485 25.6987L8.2654 25.7817C7.77768 24.3458 7.28968 22.9252 6.8123 21.5008C6.02289 19.1443 5.24295 16.7841 4.45469 14.4271C3.81828 12.5244 3.1767 10.6238 2.53139 8.72408C2.50125 8.63509 2.41456 8.56562 2.35428 8.48697L3.75972 5.90286C3.80794 5.98668 3.87167 6.06505 3.9021 6.15519C4.55229 8.07934 5.20133 10.0038 5.84491 11.9302C6.68198 14.4363 7.51388 16.9443 8.35037 19.4506C8.38366 19.5508 8.43878 19.6432 8.49131 19.7555L8.68364 19.5316C8.66757 20.4935 8.65149 21.4551 8.6357 22.4171Z" fill="#4FAA41"/>
<path fill-rule="evenodd" clip-rule="evenodd" d="M2.35454 8.48727C2.41482 8.56593 2.50123 8.6354 2.53166 8.72438C3.17696 10.6241 3.81854 12.5248 4.45495 14.4274C5.24321 16.7844 6.02315 19.1446 6.81257 21.5011C7.28966 22.9252 7.77766 24.3461 8.26566 25.782L8.48526 25.699L8.43617 26.3954L8.39168 26.5559C8.31532 27.3183 8.25102 28.0825 8.15801 28.8432C8.11122 29.2244 8.0119 29.5987 7.9364 29.9762C7.87956 29.8938 7.79976 29.8189 7.76904 29.7276C6.19969 25.0494 4.63494 20.3695 3.06817 15.6904C2.56955 14.2015 2.06834 12.7134 1.56341 11.2264C1.53786 11.1509 1.46581 11.0918 1.41528 11.0249C1.72818 10.1789 2.04136 9.33295 2.35454 8.48727Z" fill="#4AA73C"/>
<path fill-rule="evenodd" clip-rule="evenodd" d="M8.68335 19.5318L8.49102 19.7558C8.43849 19.6435 8.38338 19.5508 8.35008 19.4509C7.51388 16.9446 6.68169 14.4366 5.84463 11.9305C5.20104 10.0041 4.552 8.07963 3.90181 6.15548C3.87167 6.06534 3.80794 5.98669 3.75943 5.90315L5.49757 3.61673C5.5524 3.68993 5.63048 3.75509 5.6589 3.83748C6.14145 5.25009 6.61969 6.66443 7.09506 8.07963C7.53914 9.40125 7.97661 10.7249 8.42586 12.0448C8.456 12.1332 8.56078 12.1958 8.63082 12.2704L8.63427 12.5704C8.65092 14.8904 8.66728 17.2113 8.68335 19.5318Z" fill="#57AE47"/>
<path fill-rule="evenodd" clip-rule="evenodd" d="M8.63136 12.2698C8.56131 12.1952 8.45654 12.1326 8.42639 12.0442C7.97715 10.7243 7.53967 9.40068 7.09559 8.07906C6.62022 6.66386 6.14198 5.24981 5.65944 3.8369C5.63102 3.75452 5.55294 3.68935 5.49811 3.61615C6.06333 3.0627 6.61103 2.48945 7.19893 1.96155C7.72166 1.49249 8.14192 0.989564 8.16115 0.248378C8.16201 0.217663 8.17809 0.186948 8.20278 0.10083L8.35176 0.475729C8.34803 0.665475 8.33109 0.855221 8.34343 1.04382C8.36496 1.37193 8.41778 1.69831 8.43271 2.02642C8.46027 2.637 8.47347 3.24872 8.48582 3.86015C8.50562 4.84419 8.52371 5.82823 8.53605 6.81255C8.55528 8.38506 8.56792 9.95757 8.58772 11.5301C8.59002 11.7772 8.61585 12.0232 8.63136 12.2698Z" fill="#60B24F"/>
<path fill-rule="evenodd" clip-rule="evenodd" d="M7.93581 29.9759C8.0113 29.5984 8.11063 29.2238 8.15742 28.8429C8.25071 28.0825 8.31472 27.318 8.39108 26.5556L8.41003 26.5527L8.42898 26.5559C8.4505 27.5129 8.58083 28.4548 8.82913 29.38C8.77861 29.4466 8.70714 29.506 8.68044 29.5812C8.47175 30.1697 8.27511 30.7627 8.06527 31.3512C8.03656 31.4316 7.95676 31.4942 7.9005 31.5648L7.68607 30.8282L7.93581 29.9759Z" fill="#A9AA88"/>
<path fill-rule="evenodd" clip-rule="evenodd" d="M7.90079 31.5651C7.95705 31.4944 8.03714 31.4319 8.06556 31.3515C8.2754 30.763 8.47232 30.1702 8.68073 29.5815C8.70742 29.5063 8.77861 29.4468 8.82942 29.3802L9.18968 30.1708C9.11849 30.2719 9.02032 30.3628 8.9807 30.4754L8.29061 32.5017C8.26219 32.583 8.16517 32.6404 8.10029 32.709L7.90079 31.5651Z" fill="#B6B598"/>
<path fill-rule="evenodd" clip-rule="evenodd" d="M8.10031 32.7087C8.16547 32.6404 8.26221 32.5827 8.29063 32.5015L8.98072 30.4751C9.02005 30.3629 9.11851 30.2716 9.1897 30.1705L9.53848 30.4682C9.36997 30.6347 9.27639 30.827 9.33266 31.0702L9.22673 31.4169C9.17851 31.4764 9.10875 31.528 9.08492 31.5961C8.84408 32.2859 8.61415 32.9794 8.37158 33.6692C8.34087 33.7568 8.25561 33.8254 8.19533 33.9023C8.16404 33.5041 8.13217 33.1069 8.10031 32.7087Z" fill="#C2C1A7"/>
<path fill-rule="evenodd" clip-rule="evenodd" d="M8.1956 33.9023C8.25559 33.8251 8.34085 33.7565 8.37185 33.6692C8.61442 32.9797 8.84435 32.2861 9.08519 31.5961C9.10902 31.5283 9.17849 31.4764 9.227 31.4169L9.08089 33.0087C9.04185 33.0537 8.9853 33.0931 8.96664 33.1456C8.80158 33.6089 8.64599 34.0757 8.48036 34.539C8.4462 34.6346 8.38075 34.719 8.32965 34.8082C8.2843 34.7488 8.20306 34.6914 8.19933 34.6294C8.18469 34.388 8.19474 34.1449 8.1956 33.9023Z" fill="#CECDB7"/>
<path fill-rule="evenodd" clip-rule="evenodd" d="M8.32941 34.8083C8.3805 34.7187 8.44595 34.6343 8.48011 34.539C8.64603 34.076 8.80133 33.6092 8.96639 33.1456C8.98505 33.0931 9.04188 33.0541 9.08064 33.0087L9.08408 34.0536L8.73444 34.9504L8.32941 34.8083Z" fill="#DBDAC7"/>
<path fill-rule="evenodd" clip-rule="evenodd" d="M8.73444 34.9506L9.08407 34.0539L9.15613 35.1148L8.73444 34.9506Z" fill="#EBE9DC"/>
<path fill-rule="evenodd" clip-rule="evenodd" d="M9.33269 31.0704C9.27643 30.8273 9.36972 30.6347 9.53851 30.4685L9.63525 30.5345L9.33269 31.0704Z" fill="#CECDB7"/>
<path fill-rule="evenodd" clip-rule="evenodd" d="M8.42901 26.5562L8.41006 26.553L8.39111 26.5559L8.43561 26.3954L8.42901 26.5562Z" fill="#4FAA41"/>
</svg>
