<?xml version="1.0" encoding="utf-8"?>
<!-- Generator: Adobe Illustrator 22.1.0, SVG Export Plug-In . SVG Version: 6.00 Build 0)  -->
<svg version="1.1" id="Layer_1" xmlns="http://www.w3.org/2000/svg" xmlns:xlink="http://www.w3.org/1999/xlink" x="0px" y="0px"
	 viewBox="200 0 480 488" style="enable-background: new 0 0 882.7 688.6" xml:space="preserve">
<style type="text/css">
	.st0{fill:#FFFFFF;}
	.st1{fill:#009900;}
</style>
<path class="st0" d="M 614.1 488.4 c -18.7 -0.2 -36.3 -7.5 -49.4 -20.7 L 338.2 241.3 v 176.4 c 0 38.9 -31.7 70.7 -70.7 70.7 s -70.7 -31.7 -70.7 -70.7 V 70.7 c 0 -28.7 17.1 -54.3 43.6 -65.3 c 8.6 -3.6 17.7 -5.4 27 -5.4 c 18.9 0 36.7 7.4 50 20.7 L 544 247.1 V 70.7 C 544 31.7 575.7 0 614.6 0 s 70.7 31.7 70.7 70.7 v 347.1 c 0 38.9 -31.7 70.7 -70.7 70.7 H 614.1 L 614.1 488.4 z"/>
<path class="st1" d="M 613.6 458.2 c -11.8 0 -23.5 -4.6 -32.2 -13.3 L 312.1 175.5 v 237.2 c 0 25.2 -20.4 45.5 -45.5 45.5 s -45.5 -20.4 -45.5 -45.5 v -347 c 0 -18.5 11.1 -35 28.1 -42.1 s 36.6 -3.2 49.6 9.9 l 269.3 269.4 V 65.7 c 0 -25.2 20.4 -45.5 45.5 -45.5 c 25.2 0 45.5 20.4 45.5 45.5 v 347.1 C 659.1 437.9 638.8 458.2 613.6 458.2"/>
</svg>
