<svg width="36" height="36" viewBox="0 0 36 36" fill="none" xmlns="http://www.w3.org/2000/svg">
<path d="M17.507 20.6254C19.2293 20.6254 20.6254 19.2292 20.6254 17.507C20.6254 15.7847 19.2293 14.3885 17.507 14.3885C15.7847 14.3885 14.3886 15.7847 14.3886 17.507C14.3886 19.2292 15.7847 20.6254 17.507 20.6254Z" fill="#61DAFB"/>
<path d="M29.3516 12.3643C28.7498 12.1455 28.1206 11.9266 27.4641 11.7352C27.6282 11.0786 27.765 10.4221 27.8744 9.79298C28.4489 6.18216 27.8197 3.63817 26.069 2.6534C25.5493 2.3525 24.9748 2.21573 24.3183 2.21573C22.4035 2.21573 19.9689 3.63817 17.507 6.01803C15.0451 3.63817 12.6105 2.21573 10.6957 2.21573C10.0392 2.21573 9.46472 2.3525 8.94498 2.6534C7.19428 3.66553 6.56513 6.20951 7.13957 9.79298C7.24899 10.4221 7.38577 11.0786 7.54989 11.7352C6.89338 11.9266 6.26422 12.1181 5.66242 12.3643C2.24308 13.6773 0.382965 15.4828 0.382965 17.507C0.382965 19.5312 2.27044 21.3367 5.66242 22.6497C6.26422 22.8685 6.89338 23.0874 7.54989 23.2788C7.38577 23.9354 7.24899 24.5919 7.13957 25.221C6.56513 28.8318 7.19428 31.3758 8.94498 32.3606C9.46472 32.6615 10.0392 32.7983 10.6957 32.7983C12.6379 32.7983 15.0724 31.3758 17.507 28.996C19.9689 31.3758 22.4035 32.7983 24.3183 32.7983C24.9748 32.7983 25.5493 32.6615 26.069 32.3606C27.8197 31.3485 28.4489 28.8045 27.8744 25.221C27.765 24.5919 27.6282 23.9354 27.4641 23.2788C28.1206 23.0874 28.7498 22.8959 29.3516 22.6497C32.7709 21.3367 34.631 19.5312 34.631 17.507C34.631 15.4828 32.7709 13.6773 29.3516 12.3643ZM25.3031 4.02114C26.4246 4.67765 26.8076 6.7019 26.3426 9.57414C26.2605 10.1486 26.1237 10.7504 25.9596 11.3795C24.5372 11.0513 23.0326 10.8325 21.4461 10.6957C20.516 9.38266 19.5586 8.20641 18.6012 7.13957C20.6254 5.14268 22.677 3.77495 24.3457 3.77495C24.7013 3.77495 25.0295 3.85701 25.3031 4.02114ZM22.2394 20.2425C21.747 21.1178 21.1725 21.9932 20.5707 22.8685C19.5586 22.9506 18.5465 22.9779 17.507 22.9779C16.4402 22.9779 15.428 22.9506 14.4433 22.8685C13.8415 21.9932 13.2944 21.1178 12.802 20.2425C12.2823 19.3398 11.7899 18.4097 11.3522 17.507C11.7899 16.6043 12.2823 15.6742 12.802 14.7715C13.2944 13.8962 13.8688 13.0208 14.4706 12.1455C15.4828 12.0634 16.4949 12.0361 17.5344 12.0361C18.6012 12.0361 19.6133 12.0634 20.5981 12.1455C21.1999 13.0208 21.747 13.8962 22.2394 14.7715C22.7591 15.6742 23.2515 16.6043 23.6892 17.507C23.2241 18.4097 22.7591 19.3124 22.2394 20.2425ZM24.5098 19.3398C24.9201 20.2972 25.2484 21.2272 25.5493 22.1573C24.6192 22.3761 23.6345 22.5403 22.595 22.677C22.9232 22.1573 23.2788 21.6102 23.5797 21.0358C23.908 20.4613 24.2089 19.8869 24.5098 19.3398ZM17.507 26.7529C16.8505 26.0417 16.2213 25.2757 15.6195 24.4824C16.2487 24.5098 16.8778 24.5372 17.507 24.5372C18.1362 24.5372 18.7653 24.5098 19.3945 24.4824C18.7927 25.2757 18.1635 26.0417 17.507 26.7529ZM12.419 22.6497C11.3796 22.5129 10.3948 22.3488 9.46472 22.1299C9.76562 21.2272 10.0939 20.2698 10.5042 19.3124C10.8051 19.8595 11.106 20.434 11.4343 20.981C11.7625 21.5828 12.0908 22.1026 12.419 22.6497ZM10.5042 15.6742C10.0939 14.7168 9.76562 13.7868 9.46472 12.8567C10.3948 12.6379 11.3796 12.4737 12.419 12.337C12.0908 12.8567 11.7352 13.4038 11.4343 13.9782C11.106 14.5527 10.8051 15.1271 10.5042 15.6742ZM17.507 8.26112C18.1635 8.97234 18.7927 9.73827 19.3945 10.5316C18.7653 10.5042 18.1362 10.4768 17.507 10.4768C16.8778 10.4768 16.2487 10.5042 15.6195 10.5316C16.2213 9.73827 16.8505 8.97234 17.507 8.26112ZM23.5797 14.0056L22.595 12.3643C23.6345 12.5011 24.6192 12.6652 25.5493 12.8841C25.2484 13.7868 24.9201 14.7442 24.5098 15.7016C24.2089 15.1271 23.908 14.5527 23.5797 14.0056ZM8.67144 9.57414C8.20641 6.7019 8.58937 4.67765 9.71091 4.02114C9.98446 3.85701 10.3127 3.77495 10.6683 3.77495C12.3096 3.77495 14.3612 5.11533 16.4128 7.13957C15.4554 8.17905 14.498 9.38266 13.5679 10.6957C11.9814 10.8325 10.4768 11.0786 9.0544 11.3795C8.89027 10.7504 8.78086 10.1486 8.67144 9.57414ZM1.91483 17.507C1.91483 16.2213 3.47405 14.8536 6.20951 13.8415C6.75661 13.6226 7.35841 13.4312 7.96021 13.267C8.39789 14.6348 8.94498 16.0846 9.60149 17.5344C8.94498 18.9842 8.37053 20.4066 7.96021 21.7743C4.18527 20.6801 1.91483 19.0389 1.91483 17.507ZM9.71091 30.9929C8.58937 30.3364 8.20641 28.3121 8.67144 25.4399C8.7535 24.8654 8.89027 24.2636 9.0544 23.6345C10.4768 23.9627 11.9814 24.1815 13.5679 24.3183C14.498 25.6313 15.4554 26.8076 16.4128 27.8744C14.3886 29.8713 12.337 31.2391 10.6683 31.2391C10.3127 31.2391 9.98446 31.157 9.71091 30.9929ZM26.3426 25.4399C26.8076 28.3121 26.4246 30.3364 25.3031 30.9929C25.0295 31.157 24.7013 31.2391 24.3457 31.2391C22.7044 31.2391 20.6528 29.8987 18.6012 27.8744C19.5586 26.835 20.516 25.6313 21.4461 24.3183C23.0326 24.1815 24.5372 23.9354 25.9596 23.6345C26.1237 24.2636 26.2331 24.8654 26.3426 25.4399ZM28.8045 21.1725C28.2574 21.3914 27.6556 21.5828 27.0538 21.747C26.6161 20.3792 26.069 18.9294 25.4125 17.4796C26.069 16.0298 26.6435 14.6074 27.0538 13.2397C30.8287 14.3339 33.0992 15.9751 33.0992 17.507C33.0992 18.7927 31.5126 20.1604 28.8045 21.1725Z" fill="#61DAFB"/>
</svg>
