<svg width="16" height="13" viewBox="0 0 16 13" fill="none" xmlns="http://www.w3.org/2000/svg">
<path d="M15.5101 1.81174C14.9655 2.05113 14.384 2.2142 13.7717 2.28866C14.3957 1.91266 14.8757 1.32005 15.1028 0.612971C14.5175 0.95451 13.8689 1.20313 13.1785 1.34159C12.6271 0.751433 11.8412 0.382202 10.9686 0.382202C9.29661 0.382202 7.94092 1.73789 7.94092 3.40805C7.94092 3.64805 7.96861 3.87882 8.01907 4.09974C5.50215 3.98097 3.27138 2.77236 1.77846 0.945279C1.51569 1.38959 1.36861 1.90589 1.36861 2.46836C1.36861 3.52066 1.904 4.44559 2.71507 4.98897C2.21846 4.97297 1.75138 4.83636 1.344 4.60989V4.64743C1.344 6.11513 2.38584 7.33912 3.7723 7.61789C3.51815 7.6862 3.24984 7.72313 2.97476 7.72313C2.78153 7.72313 2.5963 7.70466 2.41107 7.6702C2.79938 8.87205 3.91569 9.74836 5.2443 9.77297C4.21046 10.5847 2.9003 11.0684 1.48923 11.0684C1.24923 11.0684 1.00984 11.0542 0.769226 11.0271C2.1163 11.885 3.70338 12.3865 5.41969 12.3865C10.9914 12.3865 14.0345 7.77359 14.0345 3.77974C14.0345 3.65113 14.0345 3.52128 14.0252 3.39205C14.6166 2.96805 15.1329 2.43205 15.5391 1.82405L15.5101 1.81174Z" fill="#1DA1F2"/>
</svg>
