<svg width="36" height="36" viewBox="0 0 36 36" fill="none" xmlns="http://www.w3.org/2000/svg">
<g fill="#259dff" clip-path="url(#clip0)">
<path d="M 35.6 26.9 C 34.4 27.2 33.6 26.9 32.9 25.9 C 31.4 23.6 29.7 21.4 28 19.1 C 27.8 18.8 27.6 18.5 27.3 18.1 C 25.3 20.8 23.4 23.3 21.5 25.9 C 20.9 26.9 20.2 27.3 19 26.9 L 26.3 17.1 L 19.5 8.1 C 20.7 7.9 21.5 8 22.2 9.1 C 23.8 11.4 25.5 13.6 27.3 16 C 29.1 13.6 30.8 11.4 32.4 9.1 C 33.1 8.2 33.8 7.8 35 8.2 C 34.1 9.3 33.2 10.5 32.3 11.7 C 31.1 13.2 30 14.8 28.7 16.4 C 28.3 16.9 28.4 17.3 28.8 17.8 C 31 20.8 33.3 23.8 35.6 26.9 Z" fill="#259dff"/>
<path d="M 1.3 16.9 C 1.5 15.9 1.7 14.9 2 13.9 C 3.6 8.1 10.3 5.6 14.9 9.3 C 17.7 11.4 18.3 14.4 18.2 17.8 H 2.9 C 2.7 23.9 7.1 27.5 12.6 25.7 C 14.6 25 15.8 23.5 16.3 21.6 C 16.6 20.6 17.1 20.4 18 20.7 C 17.5 23.1 16.5 25.1 14.3 26.4 C 11 28.2 6.3 27.6 3.9 25 C 2.4 23.5 1.8 21.6 1.5 19.5 C 1.5 19.2 1.4 18.9 1.3 18.6 C 1.3 18 1.3 17.4 1.3 16.9 Z M 3 16.5 H 16.8 C 16.7 12.1 13.9 9 10.2 8.9 C 6.1 8.9 3.1 12 3 16.5 Z" fill="#259dff"/>
</g>
<defs>
<clipPath id="clip0">
<rect width="35" height="35" fill="#259dff" transform="translate(1)"/>
</clipPath>
</defs>
</svg>
