<svg width="24" height="36" viewBox="0 0 24 36" fill="none" xmlns="http://www.w3.org/2000/svg">
<path d="M6.169 35.6358C9.39028 35.6358 12.0047 33.0214 12.0047 29.8001V23.9645H6.169C2.94771 23.9645 0.333328 26.5788 0.333328 29.8001C0.333328 33.0214 2.94771 35.6358 6.169 35.6358Z" fill="#0ACF83"/>
<path d="M0.333328 18.1287C0.333328 14.9075 2.94771 12.2931 6.169 12.2931H12.0047V23.9644H6.169C2.94771 23.9644 0.333328 21.35 0.333328 18.1287Z" fill="#A259FF"/>
<path d="M0.333344 6.45749C0.333344 3.23621 2.94772 0.621826 6.16901 0.621826H12.0047V12.2932H6.16901C2.94772 12.2932 0.333344 9.67878 0.333344 6.45749Z" fill="#F24E1E"/>
<path d="M12.0046 0.621826H17.8403C21.0616 0.621826 23.676 3.23621 23.676 6.45749C23.676 9.67878 21.0616 12.2932 17.8403 12.2932H12.0046V0.621826Z" fill="#FF7262"/>
<path d="M23.676 18.1287C23.676 21.35 21.0616 23.9644 17.8403 23.9644C14.619 23.9644 12.0046 21.35 12.0046 18.1287C12.0046 14.9075 14.619 12.2931 17.8403 12.2931C21.0616 12.2931 23.676 14.9075 23.676 18.1287Z" fill="#1ABCFE"/>
</svg>
