<svg width="36" height="36" viewBox="0 0 36 36" fill="none" xmlns="http://www.w3.org/2000/svg">
<path d="M31.6717 8.29777L19.6091 1.2936C18.8484 0.860303 17.8579 0.860303 17.0911 1.2936L4.89966 8.29777C4.11458 8.7494 3.55901 9.59821 3.55901 10.5061V24.4959C3.55901 25.4038 4.12908 26.2528 4.91416 26.7069L8.13517 28.5364C9.67469 29.2947 10.2188 29.2947 10.9193 29.2947C13.1988 29.2947 14.5009 27.9163 14.5009 25.5121V11.7007C14.5009 11.5057 14.3994 11.2154 14.2079 11.2154H12.6698C12.475 11.2154 12.039 11.5057 12.039 11.7004V25.5118C12.039 26.5775 11.075 27.6381 9.2734 26.7373L5.94516 24.8189C5.82917 24.756 5.74738 24.6293 5.74738 24.4959V10.5061C5.74738 10.3743 5.8992 10.2419 6.016 10.1743L18.1681 3.18217C18.2816 3.11789 18.4484 3.11789 18.5617 3.18217L30.5655 10.1727C30.6804 10.2419 30.6399 10.3702 30.6399 10.5061V24.4959C30.6399 24.6293 30.6899 24.7593 30.5764 24.8236L18.5168 31.8198C18.4134 31.8819 18.2851 31.8819 18.1719 31.8198L15.0789 29.9736C14.9856 29.9195 14.8748 29.9 14.7854 29.9501C13.9248 30.4378 13.7661 30.5027 12.9589 30.7825C12.7603 30.8517 12.4673 30.9718 13.0711 31.3102L17.119 33.7048C17.5066 33.9291 17.947 34.0456 18.3902 34.0456C18.8393 34.0456 19.2792 33.9291 19.6668 33.7048L31.6714 26.7069C32.4565 26.2496 32.8285 25.4038 32.8285 24.4959V10.5061C32.8285 9.59821 32.4565 8.75158 31.6717 8.29777ZM22.1356 22.279C18.928 22.279 18.2214 21.3941 17.9859 19.799C17.9585 19.6273 17.8127 19.4218 17.6379 19.4218H16.0702C15.8763 19.4218 15.7204 19.6571 15.7204 19.8502C15.7204 21.8925 16.8307 24.367 22.1359 24.367C25.9762 24.367 28.178 22.8748 28.178 20.234C28.178 17.6156 26.4089 16.9284 22.6846 16.4355C18.92 15.9379 18.5376 15.6865 18.5376 14.8046C18.5376 14.0775 18.8615 13.1078 21.6489 13.1078C24.1396 13.1078 25.0576 13.6423 25.4354 15.3211C25.4677 15.4789 25.6118 15.5922 25.7746 15.5922H27.3486C27.4454 15.5922 27.5379 15.5531 27.6057 15.4838C27.6713 15.4094 27.7061 15.3162 27.6973 15.216C27.4536 12.3252 25.533 10.978 21.6487 10.978C18.1935 10.978 16.1323 12.4371 16.1323 14.8829C16.1323 17.5357 18.1831 18.2688 21.4999 18.5968C25.4677 18.9858 25.7762 19.5657 25.7762 20.3461C25.7762 21.7016 24.688 22.279 22.1356 22.279Z" fill="#83CD29"/>
</svg>
