<svg width="512" height="430" viewBox="0 0 110 88" xmlns="http://www.w3.org/2000/svg" preserveAspectRatio="xMidYMid"><path transform="matrix(-1,0,0,-1,127.6,91.5)" d="M 72.5 55.6 c -15.7 0 -31.4 0 -47 0 c -5.5 0 -8.5 -3.8 -7.6 -9.6 c 0.8 -5.2 3.9 -6.6 7.9 -6.6 c 28.6 0.1 56.9 0 85.5 0 c 3 0 6 -0.1 9.1 0 c 4.5 0.2 7.2 3.1 7.3 8 c 0.1 4.8 -2.6 8 -7.2 8.1 c -16 0.1 -32 0 -48 0" fill="#5d5d5d"/><path d="M 54.8 14.1 c -15.6 0 -31.2 0 -46.9 0 c -5.5 0 -8.5 -3.8 -7.6 -9.5 c 0.8 -5.2 3.9 -6.5 7.9 -6.5 c 28.4 0.1 56.8 0 85.3 0 c 3 0 6.1 -0.1 9 0 c 4.5 0.2 7.3 3.1 7.3 7.9 c 0.1 4.8 -2.5 7.9 -7.3 8 c -15.8 0.1 -31.9 0 -47.8 0" fill="#1fd3ef"/><path d="M 54.9 90.2 c -15.6 0 -31.2 0 -46.9 0 c -5.5 0 -8.4 -3.8 -7.6 -9.5 c 0.8 -5.2 3.9 -6.5 7.9 -6.5 c 28.4 0.1 56.8 0 85.2 0 c 3 0 6.1 -0.1 9 0 c 4.5 0.2 7.2 3.1 7.3 7.9 c 0.1 4.8 -2.6 7.9 -7.2 8 c -15.9 0.1 -31.8 0 -47.7 0" fill="#1fd3ef"/>
</svg>