<svg width="36" height="36" viewBox="0 0 36 36" fill="none" xmlns="http://www.w3.org/2000/svg">
<g clip-path="url(#clip0)">
<path fill-rule="evenodd" clip-rule="evenodd" d="M0.980515 15.3613C0.980515 15.5536 1.03714 15.6805 1.06887 15.8039C1.27567 16.6062 1.72019 17.2947 2.24758 17.9228C2.99874 18.8178 3.91868 19.5384 4.86105 20.2159C5.67841 20.8035 6.51245 21.378 7.33309 21.9612C7.47397 22.0613 7.60719 22.1764 7.7601 22.2993C7.62853 22.3704 7.51911 22.433 7.40531 22.4908C6.32234 23.04 5.2804 23.6558 4.31998 24.4018C3.74115 24.8515 3.18147 25.3293 2.7862 25.9539C2.1502 26.9583 1.92507 28.0284 2.39913 29.171C2.53754 29.5048 2.74872 29.7931 3.04661 30.0062C3.14318 30.0751 3.2515 30.1435 3.36448 30.1703C3.65389 30.2384 3.94877 30.283 4.24174 30.3369L5.07141 30.3364C5.98888 30.2546 6.82402 29.9403 7.57874 29.4194C8.75827 28.6053 9.55293 27.5139 9.89459 26.1131C10.143 25.0949 10.1531 24.0757 9.86039 23.0622C9.83331 22.9681 9.79912 22.8759 9.76356 22.7848C9.728 22.6937 9.68614 22.6051 9.63691 22.4916L11.5178 21.41L11.546 21.434C11.5118 21.5459 11.4754 21.6575 11.4445 21.7705C11.221 22.5868 11.0725 23.4173 11.1258 24.2644C11.1827 25.1671 11.4347 26.0121 11.9631 26.7663C12.3904 27.3763 13.4086 27.399 13.8627 26.7868C14.0238 26.5693 14.18 26.342 14.2973 26.0994C14.604 25.4661 14.8879 24.8216 15.1809 24.1815L15.232 24.0645C15.211 24.3676 15.1864 24.6337 15.1751 24.9002C15.1576 25.3162 15.182 25.7298 15.3242 26.1256C15.4459 26.4643 15.653 26.7173 16.0409 26.7619C16.3063 26.7923 16.5177 26.6708 16.7127 26.5168C17.0175 26.2764 17.265 25.9793 17.4489 25.6417C17.9689 24.6868 18.5028 23.7376 18.9742 22.7586C19.484 21.6997 19.9299 20.6098 20.4034 19.5329L20.4817 19.342C20.5936 19.7815 20.6715 20.2121 20.8151 20.6197C20.982 21.0927 21.1885 21.5544 21.4134 22.0033C21.5198 22.2153 21.5075 22.3529 21.36 22.5307C20.7429 23.2747 20.1365 24.0278 19.5295 24.7801C19.3951 24.9461 19.2614 25.1152 19.1495 25.2965C19.0819 25.4068 19.0371 25.5411 19.0182 25.6696C18.9818 25.9153 19.1336 26.1522 19.3965 26.2088C19.6367 26.2605 19.8925 26.2797 20.1373 26.2616C20.9845 26.1992 21.7537 25.9019 22.4337 25.398C23.3148 24.7453 23.5976 23.8547 23.3843 22.799C23.3266 22.5126 23.2245 22.2342 23.1252 21.9582C23.0806 21.8337 23.0776 21.7464 23.1589 21.6304C23.8633 20.6246 24.4651 19.5575 25.0247 18.4658C25.0469 18.4228 25.0696 18.3799 25.1084 18.3339C25.2898 19.2777 25.5628 20.1872 26.0519 21.0125C25.8024 21.253 25.5554 21.471 25.3319 21.7111C24.8398 22.2402 24.4131 22.8146 24.1904 23.5152C24.0947 23.8172 24.0211 24.1241 24.0638 24.4466C24.13 24.9475 24.5403 25.273 25.0329 25.1589C26.0872 24.9149 26.9973 24.4182 27.6623 23.5382C28.1098 22.9457 28.1506 22.2848 27.9632 21.5924C27.9118 21.4042 27.8508 21.219 27.7851 21.0032C28.0452 20.9225 28.2988 20.8257 28.5612 20.7658C29.9231 20.455 31.2704 20.5092 32.5828 21.001C33.349 21.2882 33.9681 21.7689 34.3352 22.5249C34.7835 23.4493 34.5357 24.3263 33.6644 24.9106C33.5832 24.965 33.4902 25.0079 33.4229 25.076C33.3816 25.1179 33.3567 25.2016 33.3668 25.2593C33.3726 25.293 33.4615 25.3351 33.5126 25.3345C33.799 25.3324 34.0313 25.1822 34.2542 25.0279C34.8128 24.6414 35.2204 24.1214 35.3082 23.4367L35.3254 23.3853L35.3044 22.9394C35.2959 22.9137 35.3106 22.8882 35.3087 22.8688C35.19 21.8717 34.6574 21.0984 33.8827 20.4922C32.9855 19.7906 31.9261 19.5017 30.8056 19.456C29.8925 19.4188 28.995 19.5545 28.1344 19.8672C27.889 19.9561 27.6459 20.0614 27.3991 20.1607C27.366 20.1008 27.3305 20.0433 27.3012 19.984C27.0479 19.4653 26.741 18.9697 26.6731 18.375C26.625 17.9526 26.5659 17.5308 26.6663 17.1131C26.7629 16.7113 26.8887 16.3163 27.0071 15.9199C27.0681 15.7158 27.0252 15.6015 26.8304 15.5096C26.7626 15.4776 26.6887 15.4497 26.6154 15.439C26.1367 15.3695 25.6646 15.4092 25.2009 15.544C25.0368 15.5919 24.9175 15.6838 24.8811 15.8654C24.8603 15.9697 24.8179 16.0695 24.7884 16.1724C24.6672 16.5999 24.5813 17.0357 24.3855 17.443C23.8947 18.4647 23.3345 19.4478 22.7611 20.4238C22.699 20.5292 22.6337 20.6326 22.5554 20.7603C22.3541 20.339 22.1394 19.961 22.0743 19.5178C22.0007 19.0167 21.9427 18.5164 22.0674 18.0191C22.1602 17.6482 22.2813 17.2841 22.3929 16.9181C22.4457 16.7441 22.4214 16.6527 22.2638 16.5611C22.1842 16.5148 22.0942 16.4738 22.0045 16.4604C21.508 16.3868 21.0189 16.4254 20.5399 16.5802C20.3914 16.6284 20.3134 16.7244 20.268 16.8776C20.1345 17.3295 20.0207 17.7923 19.8334 18.2221C19.0745 19.9618 18.2938 21.6925 17.514 23.423C17.3512 23.7844 17.1605 24.1331 16.977 24.4849C16.9305 24.5741 16.8626 24.6526 16.8047 24.7363C16.7582 24.6813 16.7401 24.6436 16.7404 24.6058C16.7417 24.3834 16.7152 24.1545 16.7576 23.9395C16.8859 23.289 17.0336 22.642 17.1893 21.9975C17.3178 21.4652 17.4675 20.9378 17.61 20.4091C17.6578 20.2321 17.6587 20.0666 17.5315 19.9178C17.3178 19.6686 16.8714 19.6139 16.6066 19.8059L16.4895 19.8721L16.5122 19.6833C16.568 19.2788 16.5793 18.8756 16.4682 18.477C16.3298 17.9802 15.9753 17.6944 15.4599 17.7102C15.2197 17.7176 14.9675 17.7587 14.7451 17.8462C13.8099 18.2128 13.0907 18.8619 12.4785 19.6429C12.423 19.7137 12.3497 19.7783 12.2714 19.8218C11.4801 20.2605 10.6862 20.6938 9.89267 21.1288L9.00939 21.6127C8.7725 21.3867 8.55722 21.1523 8.31294 20.9534C7.56698 20.3451 6.80898 19.7517 6.05782 19.1502C5.39201 18.6171 4.74698 18.0618 4.2535 17.3557C3.8864 16.8305 3.64979 16.2558 3.62708 15.6064C3.59836 14.7789 3.83306 14.0228 4.25432 13.319C4.79321 12.4185 5.52823 11.6958 6.33629 11.0412C7.19112 10.3491 8.11571 9.76152 9.07395 9.2251C10.4146 8.47476 11.7935 7.81059 13.2721 7.37209C14.7881 6.92238 16.3262 6.66497 17.9128 6.84442C18.5365 6.91499 19.1421 7.05779 19.6982 7.36279C20.1241 7.59613 20.4735 7.90168 20.636 8.37929C20.7963 8.84924 20.7913 9.32549 20.6803 9.80283C20.4546 10.7695 19.9253 11.5664 19.2592 12.2784C18.1666 13.4457 16.8339 14.2403 15.3335 14.7652C14.4677 15.0681 13.5771 15.2582 12.6623 15.335C11.9158 15.3977 11.1849 15.3315 10.4781 15.0719C10.01 14.8998 9.60244 14.6367 9.27473 14.2548C9.21619 14.1864 9.14124 14.1123 9.03209 14.1763C8.92514 14.2392 8.90626 14.341 8.9421 14.4441C9.002 14.6153 9.05726 14.7937 9.15054 14.9469C9.38497 15.3312 9.7269 15.61 10.1033 15.849C10.8263 16.3089 11.6343 16.4634 12.4722 16.4993C13.7437 16.5542 14.9842 16.3644 16.2072 16.0233C17.9533 15.5364 19.4715 14.6763 20.689 13.3195C21.7028 12.1898 22.4269 10.9148 22.582 9.37527C22.6577 8.62384 22.577 7.88773 22.2253 7.20222C21.8437 6.45954 21.2369 5.90725 20.5115 5.52674C19.455 4.97281 18.3149 4.6503 17.1381 4.6503H15.9591C14.5339 4.6503 13.1561 5.0587 11.8168 5.54589C10.803 5.91491 9.80897 6.35039 8.84389 6.83238C6.74223 7.88253 4.785 9.14878 3.17737 10.8899C2.37642 11.7573 1.6983 12.7145 1.30822 13.8415C1.19415 14.1714 1.08583 14.5251 1.00431 14.8662L0.980515 15.3613ZM8.61959 24.7174C8.52849 25.9372 7.97566 26.926 7.07213 27.727C6.56388 28.1772 5.98095 28.4978 5.30201 28.6105C5.05582 28.6513 4.80388 28.6612 4.56507 28.5591C4.22451 28.4136 4.14819 28.1113 4.14162 27.7894C4.1315 27.2762 4.31122 26.8122 4.55769 26.3707C4.87938 25.7952 5.35097 25.3564 5.85457 24.9467C6.64786 24.3008 7.50844 23.7543 8.38981 23.2384L8.45628 23.211C8.5925 23.7143 8.65733 24.2114 8.61959 24.7174ZM15.5015 19.4164C15.4372 19.8059 15.3568 20.1957 15.243 20.5732C14.8496 21.8799 14.3444 23.1462 13.7981 24.3955C13.6972 24.6266 13.5503 24.8375 13.4225 25.0566C13.4028 25.0905 13.3736 25.1198 13.3451 25.148C13.187 25.3042 13.0371 25.296 12.9572 25.0916C12.8642 24.8542 12.807 24.6001 12.7578 24.3487C12.7247 24.1799 12.7326 24.0026 12.7222 23.8298C12.7329 22.6004 13.1079 21.4833 13.7442 20.4433C14.0065 20.0143 14.2921 19.6057 14.7284 19.3343C14.8625 19.2509 15.0129 19.1838 15.1647 19.1412C15.3973 19.0758 15.54 19.1833 15.5015 19.4164ZM20.1966 25.3983L21.8841 23.4279C21.9545 24.1597 20.7106 25.6204 20.1966 25.3983ZM25.5863 24.0724C25.4671 24.1408 25.3371 24.19 25.2149 24.2532C25.103 24.3112 25.066 24.2527 25.0628 24.1564C25.0606 24.091 25.0701 24.0226 25.0882 23.9592C25.3161 23.1555 25.7354 22.4694 26.3594 21.9114L26.4031 21.889C26.6999 22.7192 26.3569 23.6309 25.5863 24.0724Z" fill="#CB6699"/>
</g>
<defs>
<clipPath id="clip0">
<rect width="35.014" height="35.014" fill="white" transform="translate(0.647064)"/>
</clipPath>
</defs>
</svg>
