<svg width="38" height="38" viewBox="0 0 38 38" fill="none" xmlns="http://www.w3.org/2000/svg">
<path d="M35.9941 14.1027H6.7654V35.7068H35.9941V14.1027Z" fill="white"/>
<path d="M0.55719 19.0616V37.39H37.2141V0.733154H0.55719V19.0616ZM30.0968 17.5953C30.9748 17.7991 31.7727 18.2583 32.39 18.915C32.7299 19.2688 33.0253 19.6627 33.2698 20.088C33.2698 20.1349 31.6862 21.2053 30.7214 21.8035C30.6862 21.827 30.5455 21.6745 30.39 21.4428C30.2139 21.1389 29.9637 20.8846 29.6626 20.7036C29.3616 20.5225 29.0196 20.4207 28.6686 20.4076C27.5572 20.3314 26.8416 20.915 26.8475 21.8739C26.8383 22.1127 26.893 22.3495 27.0059 22.5601C27.2493 23.0675 27.7038 23.3695 29.129 23.9854C31.7537 25.1144 32.8768 25.8593 33.5748 26.9179C34.3548 28.0909 34.5279 29.9854 34 31.3871C33.4135 32.912 31.9765 33.9472 29.9443 34.2903C29.0161 34.3966 28.0783 34.3868 27.1525 34.261C25.7336 34.0271 24.4266 33.3459 23.4223 32.3167C23.085 31.9443 22.4282 30.9736 22.4692 30.9032C22.5763 30.8238 22.689 30.7522 22.8065 30.6892L24.1642 29.9384L25.217 29.3285L25.437 29.654C25.8081 30.1849 26.2805 30.6374 26.827 30.9854C28 31.6012 29.6012 31.5161 30.393 30.8035C30.6588 30.5424 30.8247 30.1963 30.8616 29.8255C30.8986 29.4547 30.8044 29.0827 30.5953 28.7742C30.3021 28.3666 29.7155 28.0235 28.0763 27.3079C26.1848 26.4927 25.3695 25.9883 24.6246 25.1848C24.1596 24.6545 23.8163 24.0289 23.6188 23.3519C23.4714 22.5784 23.4496 21.7863 23.5543 21.0059C23.9443 19.1789 25.3138 17.9032 27.3138 17.5249C28.24 17.4103 29.1782 17.436 30.0968 17.6012V17.5953ZM21.4927 19.132V20.6334H16.7331V34.1906H13.3578V20.6305H8.58651V19.1642C8.57165 18.6586 8.5834 18.1525 8.62171 17.6481C8.64517 17.6217 11.5543 17.6217 15.0733 17.6217H21.4751L21.4927 19.132Z" fill="#007ACC"/>
</svg>
